<?xml version="1.0" encoding="UTF-8"?>

<!DOCTYPE svg PUBLIC '-//W3C//DTD SVG 1.0//EN' 'http://www.w3.org/TR/2001/REC-SVG-20010904/DTD/svg10.dtd'>
<svg fill-opacity="1" xmlns:xlink="http://www.w3.org/1999/xlink" color-rendering="auto" color-interpolation="auto" stroke="black" text-rendering="auto" stroke-linecap="square" stroke-miterlimit="10" stroke-opacity="1" shape-rendering="auto" fill="black" stroke-dasharray="none" font-weight="normal" stroke-width="1" xmlns="http://www.w3.org/2000/svg" font-family="&apos;Dialog&apos;" font-style="normal" stroke-linejoin="miter" font-size="12" stroke-dashoffset="0" image-rendering="auto">
  <!--Generated by the Batik Graphics2D SVG Generator-->
  <defs id="genericDefs" />
  <g>
    <defs id="defs1">
      <linearGradient x1="45" gradientUnits="userSpaceOnUse" x2="45" y1="56" y2="192" id="linearGradient1" spreadMethod="pad">
        <stop stop-opacity="1" stop-color="blue" offset="0%" />
        <stop stop-opacity="1" stop-color="aqua" offset="100%" />
      </linearGradient>
      <linearGradient x1="45" gradientUnits="userSpaceOnUse" x2="45" y1="56" y2="84" id="linearGradient2" spreadMethod="pad">
        <stop stop-opacity="1" stop-color="lime" offset="0%" />
        <stop stop-opacity="1" stop-color="red" offset="100%" />
      </linearGradient>
      <clipPath clipPathUnits="userSpaceOnUse" id="clipPath1">
        <path d="M47.9609 57 C46.8779 57 46 57.8779 46 58.9609 L46 191.0391 C46 192.122 46.8779 193 47.9609 193 C47.9609 193 47.9609 193 47.9609 193 L168.0391 193 C169.1221 193 170 192.1221 170 191.039 L170 58.9609 C170 57.8779 169.1221 57 168.039 57 C168.039 57 168.039 57 168.039 57 L47.9609 57 Z" />
      </clipPath>
      <clipPath clipPathUnits="userSpaceOnUse" id="clipPath2">
        <path d="M44 55 L171 55 L171 194 L44 194 L44 55 Z" />
      </clipPath>
      <clipPath clipPathUnits="userSpaceOnUse" id="clipPath3">
        <path d="M108 57 C108 57 108 57 108 57 C73.7583 57 46 63.0442 46 70.5 C46 77.9558 73.7583 84 108 84 C108 84 108.0001 84 108.0001 84 C142.2417 84 170 77.9558 170 70.5 L170 70.5 C170 63.0442 142.2416 57 108 57 Z" />
      </clipPath>
      <clipPath clipPathUnits="userSpaceOnUse" id="clipPath4">
        <path d="M44 55 L171 55 L171 85 L44 85 L44 55 Z" />
      </clipPath>
      <clipPath clipPathUnits="userSpaceOnUse" id="clipPath5">
        <path d="M81 56 L171 56 L171 83 L81 83 L81 56 Z" />
      </clipPath>
    </defs>
    <g font-size="15" fill="url(#linearGradient1)" text-rendering="optimizeLegibility" font-family="&apos;Segoe UI&apos;" stroke-linejoin="round" stroke="url(#linearGradient1)" stroke-width="0" stroke-miterlimit="0">
      <rect x="45" y="56" clip-path="url(#clipPath1)" width="124" height="136" stroke="none" />
    </g>
    <g font-size="15" stroke-linecap="butt" fill="red" text-rendering="optimizeLegibility" font-family="&apos;Segoe UI&apos;" stroke="red">
      <path fill="none" d="M47.5 56 C46.1193 56 45 57.1193 45 58.5 L45 189.5 C45 190.8807 46.1193 192 47.5 192 L166.5 192 C167.8807 192 169 190.8807 169 189.5 L169 58.5 C169 57.1193 167.8807 56 166.5 56 C166.5 56 166.5 56 166.5 56 Z" clip-path="url(#clipPath2)" fill-rule="evenodd" />
      <rect x="45" y="56" clip-path="url(#clipPath3)" fill="url(#linearGradient2)" width="125" height="28" stroke="none" />
      <path fill="none" d="M169 69.5 C169 62.0442 141.2416 56 107 56 C72.7583 56 45 62.0442 45 69.5 C45 76.9558 72.7584 83 107.0001 83 C141.2417 83 169 76.9558 169 69.5 Z" clip-path="url(#clipPath4)" fill-rule="evenodd" stroke="black" />
    </g>
    <g font-size="13" stroke-linecap="butt" fill="white" text-rendering="optimizeLegibility" font-family="&apos;Segoe UI&apos;" stroke="white" font-weight="bold">
      <text xml:space="preserve" x="82" y="75" clip-path="url(#clipPath5)" stroke="none">TEST</text>
    </g>
  </g>
</svg>
